<svg xmlns="http://www.w3.org/2000/svg" width="512" height="512" viewBox="0 0 512 512">
  <defs>
    <filter id="glow" x="-40%" y="-40%" width="180%" height="180%">
      <feGaussianBlur stdDeviation="5" result="b"/>
      <feMerge><feMergeNode in="b"/><feMergeNode in="b"/><feMergeNode in="SourceGraphic"/></feMerge>
    </filter>
    <radialGradient id="room" cx="50%" cy="46%" r="52%">
      <stop offset="0%" stop-color="#00ff41" stop-opacity="0.17"/>
      <stop offset="100%" stop-color="#00ff41" stop-opacity="0"/>
    </radialGradient>
    <radialGradient id="vig" cx="50%" cy="42%" r="62%">
      <stop offset="55%" stop-color="#000000" stop-opacity="0"/>
      <stop offset="100%" stop-color="#000000" stop-opacity="0.9"/>
    </radialGradient>
    <pattern id="scan" width="4" height="4" patternUnits="userSpaceOnUse">
      <rect width="4" height="2" fill="#000000" fill-opacity="0.22"/>
    </pattern>
  </defs>
  <rect width="512" height="512" fill="#000201"/>
  <rect width="512" height="512" fill="url(#room)"/>
  <g filter="url(#glow)">
    <rect x="102.0" y="76.0" width="44.0" height="44.0" fill="#00ff41"/>
    <rect x="146.0" y="76.0" width="44.0" height="44.0" fill="#00ff41"/>
    <rect x="190.0" y="76.0" width="44.0" height="44.0" fill="#00ff41"/>
    <rect x="234.0" y="76.0" width="44.0" height="44.0" fill="#00ff41"/>
    <rect x="278.0" y="76.0" width="44.0" height="44.0" fill="#00ff41"/>
    <rect x="102.0" y="120.0" width="44.0" height="44.0" fill="#00ff41"/>
    <rect x="146.0" y="120.0" width="44.0" height="44.0" fill="#00ff41"/>
    <rect x="278.0" y="120.0" width="44.0" height="44.0" fill="#00ff41"/>
    <rect x="322.0" y="120.0" width="44.0" height="44.0" fill="#00ff41"/>
    <rect x="102.0" y="164.0" width="44.0" height="44.0" fill="#00ff41"/>
    <rect x="146.0" y="164.0" width="44.0" height="44.0" fill="#00ff41"/>
    <rect x="322.0" y="164.0" width="44.0" height="44.0" fill="#00ff41"/>
    <rect x="366.0" y="164.0" width="44.0" height="44.0" fill="#00ff41"/>
    <rect x="103.1" y="209.1" width="41.8" height="41.8" fill="#00ff41"/>
    <rect x="147.1" y="209.1" width="41.8" height="41.8" fill="#00ff41"/>
    <rect x="323.1" y="209.1" width="41.8" height="41.8" fill="#00ff41"/>
    <rect x="367.1" y="209.1" width="41.8" height="41.8" fill="#00ff41"/>
    <rect x="104.2" y="254.2" width="39.6" height="39.6" fill="#00ff41"/>
    <rect x="148.2" y="254.2" width="39.6" height="39.6" fill="#00ff41"/>
    <rect x="324.2" y="254.2" width="39.6" height="39.6" fill="#00ff41"/>
    <rect x="368.2" y="254.2" width="39.6" height="39.6" fill="#00ff41"/>
    <rect x="105.3" y="299.3" width="37.4" height="37.4" fill="#63e88b"/>
    <rect x="149.3" y="299.3" width="37.4" height="37.4" fill="#63e88b"/>
    <rect x="281.3" y="299.3" width="37.4" height="37.4" fill="#63e88b"/>
    <rect x="325.3" y="299.3" width="37.4" height="37.4" fill="#63e88b"/>
    <rect x="150.4" y="344.4" width="35.2" height="35.2" fill="#63e88b"/>
    <rect x="238.4" y="344.4" width="35.2" height="35.2" fill="#63e88b"/>
    <rect x="282.4" y="344.4" width="35.2" height="35.2" fill="#63e88b"/>
    <rect x="146.6" y="402.6" width="14" height="14" fill="#63e88b"/>
    <rect x="261.2" y="435.3" width="10" height="10" fill="#2c7a45"/>
    <rect x="342.2" y="398.5" width="12" height="12" fill="#63e88b"/>
    <rect x="211.0" y="472.2" width="8" height="8" fill="#0f8a33"/>
    <rect x="385.6" y="457.3" width="7" height="7" fill="#0f8a33"/>
    <rect x="109.1" y="457.3" width="7" height="7" fill="#0f8a33"/>
    <rect x="304.2" y="493.6" width="6" height="6" fill="#0f8a33"/>
  </g>
  <rect width="512" height="512" fill="url(#scan)"/>
  <rect width="512" height="512" fill="url(#vig)"/>
</svg>
